<mxfile host="app.diagrams.net" modified="2021-10-30T16:55:34.594Z" agent="5.0 (Windows)" etag="L4HSM8gggnhJt0KReCH7" version="15.6.2" type="github" pages="5">
  <diagram id="CJeT1tJ7x54Fi_hEB8Cb" name="Joueur individuel">
    <mxGraphModel dx="1422" dy="780" grid="1" gridSize="10" guides="1" tooltips="1" connect="1" arrows="1" fold="1" page="1" pageScale="1" pageWidth="827" pageHeight="1169" math="0" shadow="0">
      <root>
        <mxCell id="0" />
        <mxCell id="1" parent="0" />
        <mxCell id="T6flxb1Yt9HdEaJh2tTV-1" value="&lt;div&gt;Club / Premiere saison / Age / Taille / pied fort /&amp;nbsp; Nationalité / Poid / nom complet / position&lt;br&gt;&lt;/div&gt;&lt;div&gt;Bio wikipédia / date naissance / lieu naissance&lt;br&gt;&lt;/div&gt;" style="rounded=0;whiteSpace=wrap;html=1;" parent="1" vertex="1">
          <mxGeometry x="120" y="120" width="600" height="150" as="geometry" />
        </mxCell>
        <mxCell id="T6flxb1Yt9HdEaJh2tTV-2" value="Nom Joueur + Photo" style="rounded=1;whiteSpace=wrap;html=1;" parent="1" vertex="1">
          <mxGeometry x="210" y="10" width="410" height="90" as="geometry" />
        </mxCell>
        <mxCell id="T6flxb1Yt9HdEaJh2tTV-3" value="&lt;div&gt;Diagramme statistique par saison&lt;/div&gt;&lt;div&gt;Victoire / défaite / match nul &lt;br&gt;&lt;/div&gt;&lt;div&gt;&lt;br&gt;&lt;/div&gt;&lt;div&gt;- Attaque (nb but / passes de / SCA / GCA / tir cadre / tir / penalty réussi / penalty tenté )&lt;/div&gt;&lt;div&gt;&lt;br&gt;&lt;/div&gt;&lt;div&gt;- Defense (Arret / Tir stop / balle recup / Interception / tackles (toute les distances)&amp;nbsp; / pression (toute les distances) / erreur menant à un but / own goal / penalty offert/ balle perdue puis recupéré)&lt;/div&gt;&lt;div&gt;&lt;br&gt;&lt;/div&gt;&lt;div&gt;-Passes (nb passes recu / nb passes ciblé / nb passe reussit (par disance) / nb passe tenté (par distance) / tier du terrain favori / distance total des passes / petit pont / passes proche du but / passes sous pression / passes hauteur (sol / levé / haute ) / passes gauche / droit / outofbound )&lt;/div&gt;&lt;div&gt;&lt;br&gt;&lt;/div&gt;&lt;div&gt;-Coup de pied arrete (Touches / corner / coup franc )&lt;/div&gt;&lt;div&gt;&lt;br&gt;&lt;/div&gt;&lt;div&gt;-Autres stats (carton jaune (simple et double)&amp;nbsp; / rouge / fautes / fautes provoquées / match played / match begin&amp;nbsp; / distance parcourru / nombre de touche / Dribble (tenté et réussi) / controle de balle / nb point marqué par l&#39;équipe / match aérien perdu / match aérien gagné)&lt;/div&gt;" style="whiteSpace=wrap;html=1;" parent="1" vertex="1">
          <mxGeometry x="30" y="410" width="450" height="350" as="geometry" />
        </mxCell>
        <mxCell id="T6flxb1Yt9HdEaJh2tTV-4" value="&lt;div&gt;Pie-Plot&lt;/div&gt;&lt;div&gt;Bar-Plot&lt;br&gt;&lt;/div&gt;" style="ellipse;whiteSpace=wrap;html=1;" parent="1" vertex="1">
          <mxGeometry x="520" y="440" width="270" height="260" as="geometry" />
        </mxCell>
        <mxCell id="T6flxb1Yt9HdEaJh2tTV-6" value="&lt;div&gt;Comparaison avec d&#39;autre joueur&lt;/div&gt;&lt;div&gt;&lt;br&gt;&lt;/div&gt;&lt;div&gt;En fonction de :&lt;/div&gt;&lt;div&gt;Météo &lt;br&gt;&lt;/div&gt;&lt;div&gt;Domicile / Extérieur &lt;br&gt;&lt;/div&gt;&lt;div&gt;Adversaire&lt;/div&gt;&lt;div&gt;Arbitre&lt;br&gt;&lt;/div&gt;&lt;div&gt;&lt;br&gt;&lt;/div&gt;&lt;div&gt;&lt;br&gt;&lt;/div&gt;&lt;div&gt;Statistique à comparer :&lt;/div&gt;&lt;div&gt;But&lt;/div&gt;&lt;div&gt;Arret&lt;/div&gt;&lt;div&gt;...&lt;br&gt;&lt;/div&gt;" style="whiteSpace=wrap;html=1;" parent="1" vertex="1">
          <mxGeometry x="54" y="880" width="360" height="260" as="geometry" />
        </mxCell>
        <mxCell id="T6flxb1Yt9HdEaJh2tTV-7" value="&lt;div&gt;Bar-Plot&lt;/div&gt;&lt;div&gt;Curve-Plot&lt;/div&gt;&lt;div&gt;Histogramme&lt;/div&gt;" style="ellipse;whiteSpace=wrap;html=1;aspect=fixed;" parent="1" vertex="1">
          <mxGeometry x="530" y="890" width="230" height="230" as="geometry" />
        </mxCell>
        <mxCell id="EqxOTxLDydkNr3TZTUX--1" value="Fltre information souhaitées" style="rounded=0;whiteSpace=wrap;html=1;" vertex="1" parent="1">
          <mxGeometry x="80" y="320" width="260" height="60" as="geometry" />
        </mxCell>
        <mxCell id="EqxOTxLDydkNr3TZTUX--3" value="Filtre saison souhaitées" style="whiteSpace=wrap;html=1;" vertex="1" parent="1">
          <mxGeometry x="520" y="320" width="250" height="60" as="geometry" />
        </mxCell>
        <mxCell id="EqxOTxLDydkNr3TZTUX--4" value="&lt;div&gt;Prédiction des performances sur le prochain match&lt;/div&gt;&lt;div&gt;&amp;nbsp;? Score ? &lt;br&gt;&lt;/div&gt;" style="whiteSpace=wrap;html=1;" vertex="1" parent="1">
          <mxGeometry x="264" y="1260" width="356" height="190" as="geometry" />
        </mxCell>
      </root>
    </mxGraphModel>
  </diagram>
  <diagram id="J2wsvkPznbtxQxk8MXnl" name="Club">
    <mxGraphModel dx="1422" dy="780" grid="1" gridSize="10" guides="1" tooltips="1" connect="1" arrows="1" fold="1" page="1" pageScale="1" pageWidth="827" pageHeight="1169" math="0" shadow="0">
      <root>
        <mxCell id="O2UlwO_TU60vwdgZH5u1-0" />
        <mxCell id="O2UlwO_TU60vwdgZH5u1-1" parent="O2UlwO_TU60vwdgZH5u1-0" />
        <mxCell id="O2UlwO_TU60vwdgZH5u1-2" value="Club&lt;span style=&quot;white-space: pre&quot;&gt; / Logo&lt;/span&gt;" style="rounded=0;whiteSpace=wrap;html=1;" parent="O2UlwO_TU60vwdgZH5u1-1" vertex="1">
          <mxGeometry x="240" y="20" width="390" height="70" as="geometry" />
        </mxCell>
        <mxCell id="O2UlwO_TU60vwdgZH5u1-3" value="&lt;div&gt;Wiki + Stade &lt;br&gt;&lt;/div&gt;&lt;div&gt;Ligue + Joueurs actuels+ Position dans la ligue &lt;br&gt;&lt;/div&gt;" style="rounded=0;whiteSpace=wrap;html=1;" parent="O2UlwO_TU60vwdgZH5u1-1" vertex="1">
          <mxGeometry x="120" y="130" width="600" height="100" as="geometry" />
        </mxCell>
        <mxCell id="UwXla9fPWS5Oq0Q5wBLE-0" value="&lt;div&gt;Par saison :&lt;/div&gt;&lt;div&gt;Nb victoire/defaite/Nul&lt;/div&gt;&lt;div&gt;&lt;br&gt;&lt;/div&gt;" style="rounded=0;whiteSpace=wrap;html=1;" parent="O2UlwO_TU60vwdgZH5u1-1" vertex="1">
          <mxGeometry x="120" y="320" width="330" height="170" as="geometry" />
        </mxCell>
        <mxCell id="UwXla9fPWS5Oq0Q5wBLE-1" value="Pie-Plot" style="ellipse;whiteSpace=wrap;html=1;aspect=fixed;" parent="O2UlwO_TU60vwdgZH5u1-1" vertex="1">
          <mxGeometry x="560" y="320" width="160" height="160" as="geometry" />
        </mxCell>
        <mxCell id="UwXla9fPWS5Oq0Q5wBLE-2" value="Comparaison avec d&#39;autre club" style="rounded=0;whiteSpace=wrap;html=1;" parent="O2UlwO_TU60vwdgZH5u1-1" vertex="1">
          <mxGeometry x="120" y="600" width="320" height="190" as="geometry" />
        </mxCell>
        <mxCell id="UwXla9fPWS5Oq0Q5wBLE-3" value="&lt;div&gt;Bar-plot &lt;br&gt;&lt;/div&gt;&lt;div&gt;Curve Plot&lt;br&gt;&lt;/div&gt;" style="ellipse;whiteSpace=wrap;html=1;aspect=fixed;" parent="O2UlwO_TU60vwdgZH5u1-1" vertex="1">
          <mxGeometry x="540" y="600" width="180" height="180" as="geometry" />
        </mxCell>
      </root>
    </mxGraphModel>
  </diagram>
  <diagram id="QALx4XxC9RKibcbLFy6L" name="Equipe national">
    <mxGraphModel dx="1422" dy="780" grid="1" gridSize="10" guides="1" tooltips="1" connect="1" arrows="1" fold="1" page="1" pageScale="1" pageWidth="827" pageHeight="1169" math="0" shadow="0">
      <root>
        <mxCell id="UeCi5dSH3mDtGEnz0G-X-0" />
        <mxCell id="UeCi5dSH3mDtGEnz0G-X-1" parent="UeCi5dSH3mDtGEnz0G-X-0" />
        <mxCell id="UeCi5dSH3mDtGEnz0G-X-2" value="Equipe nationale&lt;span style=&quot;white-space: pre&quot;&gt; / Drapeau&lt;/span&gt;" style="rounded=0;whiteSpace=wrap;html=1;" parent="UeCi5dSH3mDtGEnz0G-X-1" vertex="1">
          <mxGeometry x="240" y="20" width="390" height="70" as="geometry" />
        </mxCell>
        <mxCell id="UeCi5dSH3mDtGEnz0G-X-3" value="&lt;div&gt;Wiki + Stade &lt;br&gt;&lt;/div&gt;&lt;div&gt;Ligue + Joueurs actuels+ Position dans la ligue &lt;br&gt;&lt;/div&gt;" style="rounded=0;whiteSpace=wrap;html=1;" parent="UeCi5dSH3mDtGEnz0G-X-1" vertex="1">
          <mxGeometry x="120" y="120" width="600" height="100" as="geometry" />
        </mxCell>
        <mxCell id="UeCi5dSH3mDtGEnz0G-X-4" value="&lt;div&gt;Par saison :&lt;/div&gt;&lt;div&gt;Nb victoire/defaite/Nul&lt;/div&gt;&lt;div&gt;&lt;br&gt;&lt;/div&gt;" style="rounded=0;whiteSpace=wrap;html=1;" parent="UeCi5dSH3mDtGEnz0G-X-1" vertex="1">
          <mxGeometry x="120" y="320" width="330" height="170" as="geometry" />
        </mxCell>
        <mxCell id="UeCi5dSH3mDtGEnz0G-X-5" value="Pie-Plot" style="ellipse;whiteSpace=wrap;html=1;aspect=fixed;" parent="UeCi5dSH3mDtGEnz0G-X-1" vertex="1">
          <mxGeometry x="560" y="320" width="160" height="160" as="geometry" />
        </mxCell>
        <mxCell id="UeCi5dSH3mDtGEnz0G-X-6" value="Comparaison avec d&#39;autre club" style="rounded=0;whiteSpace=wrap;html=1;" parent="UeCi5dSH3mDtGEnz0G-X-1" vertex="1">
          <mxGeometry x="120" y="600" width="320" height="190" as="geometry" />
        </mxCell>
        <mxCell id="UeCi5dSH3mDtGEnz0G-X-7" value="&lt;div&gt;Bar-plot &lt;br&gt;&lt;/div&gt;&lt;div&gt;Curve Plot&lt;br&gt;&lt;/div&gt;" style="ellipse;whiteSpace=wrap;html=1;aspect=fixed;" parent="UeCi5dSH3mDtGEnz0G-X-1" vertex="1">
          <mxGeometry x="540" y="600" width="180" height="180" as="geometry" />
        </mxCell>
      </root>
    </mxGraphModel>
  </diagram>
  <diagram id="SVzB3-ABH7vbqYnZ-uSh" name="Sommaire / acceuil">
    <mxGraphModel dx="1422" dy="780" grid="1" gridSize="10" guides="1" tooltips="1" connect="1" arrows="1" fold="1" page="1" pageScale="1" pageWidth="827" pageHeight="1169" math="0" shadow="0">
      <root>
        <mxCell id="luFVuUY-q2KuwPfK-Spb-0" />
        <mxCell id="luFVuUY-q2KuwPfK-Spb-1" parent="luFVuUY-q2KuwPfK-Spb-0" />
        <mxCell id="luFVuUY-q2KuwPfK-Spb-2" value="Nom du site" style="rounded=1;whiteSpace=wrap;html=1;" parent="luFVuUY-q2KuwPfK-Spb-1" vertex="1">
          <mxGeometry x="160" y="20" width="520" height="60" as="geometry" />
        </mxCell>
        <mxCell id="luFVuUY-q2KuwPfK-Spb-4" value="&lt;div&gt;Trombinoscope des 5meilleurs joueurs par poste&lt;/div&gt;&lt;div&gt;Attaquant (nb but / passe décisive / tir cadré / SCA / GCA / Passe offensive)&lt;/div&gt;&lt;div&gt;Defenseur (Tir bloqué / Récupération / Passe defensive / Tackle réussis / préssure)&lt;/div&gt;&lt;div&gt;Milieu (Nombre passes / Nombre touche /&amp;nbsp; &lt;br&gt;&lt;/div&gt;&lt;div&gt;Gardien (Nb arret )&lt;/div&gt;&lt;div&gt;&lt;br&gt;&lt;/div&gt;&lt;div&gt;Meilleure Jeune (même critère) moins de 22 ans &lt;br&gt;&lt;/div&gt;" style="rounded=0;whiteSpace=wrap;html=1;" parent="luFVuUY-q2KuwPfK-Spb-1" vertex="1">
          <mxGeometry x="80" y="260" width="680" height="240" as="geometry" />
        </mxCell>
        <mxCell id="luFVuUY-q2KuwPfK-Spb-5" value="Filtre recherche de joueurs : Nom / Pos / Ligue / nationalité / Club" style="rounded=0;whiteSpace=wrap;html=1;" parent="luFVuUY-q2KuwPfK-Spb-1" vertex="1">
          <mxGeometry x="80" y="120" width="680" height="60" as="geometry" />
        </mxCell>
      </root>
    </mxGraphModel>
  </diagram>
  <diagram id="H8dRLno0wypabiDuHtBu" name="Structure">
    <mxGraphModel dx="1422" dy="780" grid="1" gridSize="10" guides="1" tooltips="1" connect="1" arrows="1" fold="1" page="1" pageScale="1" pageWidth="827" pageHeight="1169" math="0" shadow="0">
      <root>
        <mxCell id="uTRIDlf3aOCsrLRiGXDf-0" />
        <mxCell id="uTRIDlf3aOCsrLRiGXDf-1" parent="uTRIDlf3aOCsrLRiGXDf-0" />
        <mxCell id="uTRIDlf3aOCsrLRiGXDf-16" style="edgeStyle=orthogonalEdgeStyle;rounded=0;orthogonalLoop=1;jettySize=auto;html=1;" edge="1" parent="uTRIDlf3aOCsrLRiGXDf-1" source="uTRIDlf3aOCsrLRiGXDf-3">
          <mxGeometry relative="1" as="geometry">
            <mxPoint x="414" y="290" as="targetPoint" />
          </mxGeometry>
        </mxCell>
        <mxCell id="uTRIDlf3aOCsrLRiGXDf-3" value="Scrapping Fbref / Wiki / Météo" style="rounded=0;whiteSpace=wrap;html=1;" vertex="1" parent="uTRIDlf3aOCsrLRiGXDf-1">
          <mxGeometry x="294" y="160" width="240" height="80" as="geometry" />
        </mxCell>
        <mxCell id="uTRIDlf3aOCsrLRiGXDf-4" value="" style="rounded=0;whiteSpace=wrap;html=1;" vertex="1" parent="uTRIDlf3aOCsrLRiGXDf-1">
          <mxGeometry x="95" y="290" width="650" height="480" as="geometry" />
        </mxCell>
        <mxCell id="uTRIDlf3aOCsrLRiGXDf-5" value="&lt;div&gt;&lt;b&gt;Objectif :&lt;/b&gt;&lt;/div&gt;&lt;div&gt;Outil afin de visualiser les compétences et performances individuels, de chaque club, de chaque équipe nationale.&lt;/div&gt;&lt;div&gt;Permettre la comparaison entre deux joueurs ou deux clubs, ou deux équipes nationale.&lt;/div&gt;&lt;div&gt;Réaliser une prédiction de la performance (Score de performance ??) sur le prochain match.&lt;/div&gt;&lt;div&gt;Afin les meilleurs joueurs du moment dans chaque poste, et ainsi afin l&#39;équipe meilleur mondialement, par ligue, par nation.&lt;br&gt;&lt;/div&gt;" style="rounded=1;whiteSpace=wrap;html=1;" vertex="1" parent="uTRIDlf3aOCsrLRiGXDf-1">
          <mxGeometry x="80" y="20" width="680" height="120" as="geometry" />
        </mxCell>
        <mxCell id="uTRIDlf3aOCsrLRiGXDf-12" style="edgeStyle=orthogonalEdgeStyle;rounded=0;orthogonalLoop=1;jettySize=auto;html=1;entryX=0.5;entryY=0;entryDx=0;entryDy=0;" edge="1" parent="uTRIDlf3aOCsrLRiGXDf-1" source="uTRIDlf3aOCsrLRiGXDf-6" target="uTRIDlf3aOCsrLRiGXDf-7">
          <mxGeometry relative="1" as="geometry" />
        </mxCell>
        <mxCell id="uTRIDlf3aOCsrLRiGXDf-6" value="Data Bricks" style="rounded=0;whiteSpace=wrap;html=1;" vertex="1" parent="uTRIDlf3aOCsrLRiGXDf-1">
          <mxGeometry x="286" y="300" width="256" height="70" as="geometry" />
        </mxCell>
        <mxCell id="uTRIDlf3aOCsrLRiGXDf-13" style="edgeStyle=orthogonalEdgeStyle;rounded=0;orthogonalLoop=1;jettySize=auto;html=1;" edge="1" parent="uTRIDlf3aOCsrLRiGXDf-1" source="uTRIDlf3aOCsrLRiGXDf-7" target="uTRIDlf3aOCsrLRiGXDf-8">
          <mxGeometry relative="1" as="geometry" />
        </mxCell>
        <mxCell id="uTRIDlf3aOCsrLRiGXDf-7" value="Kafka" style="rounded=0;whiteSpace=wrap;html=1;" vertex="1" parent="uTRIDlf3aOCsrLRiGXDf-1">
          <mxGeometry x="343" y="420" width="141" height="50" as="geometry" />
        </mxCell>
        <mxCell id="uTRIDlf3aOCsrLRiGXDf-14" style="edgeStyle=orthogonalEdgeStyle;rounded=0;orthogonalLoop=1;jettySize=auto;html=1;entryX=0.5;entryY=0;entryDx=0;entryDy=0;" edge="1" parent="uTRIDlf3aOCsrLRiGXDf-1" source="uTRIDlf3aOCsrLRiGXDf-8" target="uTRIDlf3aOCsrLRiGXDf-9">
          <mxGeometry relative="1" as="geometry" />
        </mxCell>
        <mxCell id="uTRIDlf3aOCsrLRiGXDf-8" value="Spark" style="rounded=0;whiteSpace=wrap;html=1;" vertex="1" parent="uTRIDlf3aOCsrLRiGXDf-1">
          <mxGeometry x="351" y="540" width="126" height="60" as="geometry" />
        </mxCell>
        <mxCell id="uTRIDlf3aOCsrLRiGXDf-15" style="edgeStyle=orthogonalEdgeStyle;rounded=0;orthogonalLoop=1;jettySize=auto;html=1;" edge="1" parent="uTRIDlf3aOCsrLRiGXDf-1" source="uTRIDlf3aOCsrLRiGXDf-9" target="uTRIDlf3aOCsrLRiGXDf-10">
          <mxGeometry relative="1" as="geometry" />
        </mxCell>
        <mxCell id="uTRIDlf3aOCsrLRiGXDf-9" value="Mongo/Elactic search" style="rounded=0;whiteSpace=wrap;html=1;" vertex="1" parent="uTRIDlf3aOCsrLRiGXDf-1">
          <mxGeometry x="354" y="660" width="120" height="60" as="geometry" />
        </mxCell>
        <mxCell id="uTRIDlf3aOCsrLRiGXDf-10" value="DataVis sur Flask" style="rounded=0;whiteSpace=wrap;html=1;" vertex="1" parent="uTRIDlf3aOCsrLRiGXDf-1">
          <mxGeometry x="331" y="810" width="166" height="100" as="geometry" />
        </mxCell>
      </root>
    </mxGraphModel>
  </diagram>
</mxfile>
